<?xml version="1.0" standalone="no"?>
<!DOCTYPE svg PUBLIC "-//W3C//DTD SVG 20010904//EN"
 "http://www.w3.org/TR/2001/REC-SVG-20010904/DTD/svg10.dtd">
<svg version="1.0" xmlns="http://www.w3.org/2000/svg"
 width="1200.000000pt" height="1200.000000pt" viewBox="0 0 1200.000000 1200.000000"
 preserveAspectRatio="xMidYMid meet">
<metadata>
Created by potrace 1.11, written by Peter Selinger 2001-2013
</metadata>
<g transform="translate(0.000000,1200.000000) scale(0.100000,-0.100000)"
fill="#000000" stroke="none">
<path d="M2590 10495 l0 -1505 -427 -2 -428 -3 -3 -852 -2 -853 -425 0 -425 0
0 -1285 0 -1285 425 0 425 0 0 -850 0 -850 430 0 430 0 0 -1505 0 -1505 2990
0 2990 0 0 1505 0 1505 425 0 425 0 0 850 0 850 424 0 424 0 6 22 c3 13 5 194
5 403 0 209 0 392 0 408 l1 27 425 0 425 0 0 425 0 425 -426 2 -427 3 -1 425
-1 425 -427 3 -428 2 0 855 0 855 -425 0 -425 0 0 1505 0 1505 -2990 0 -2990
0 0 -1505z m2560 -2790 l0 -2135 425 0 425 0 0 2135 0 2135 430 0 430 0 0
-430 0 -430 855 0 855 0 0 -850 0 -850 425 0 425 0 0 -1280 0 -1280 -425 0
-425 0 0 -855 0 -855 -855 0 -855 0 0 -425 0 -425 -1280 0 -1280 0 0 425 0
425 -855 0 -855 0 0 855 0 855 -425 0 -425 0 0 1280 0 1280 425 0 425 0 0 850
0 850 855 0 855 0 0 430 0 430 425 0 425 0 0 -2135z"/>
</g>
</svg>
